<?xml version="1.0" encoding="UTF-8"?>
<svg width="517px" height="173px" viewBox="0 0 517 173" version="1.1" xmlns="http://www.w3.org/2000/svg" xmlns:xlink="http://www.w3.org/1999/xlink">
    <!-- Generator: Sketch 41.2 (35397) - http://www.bohemiancoding.com/sketch -->
    <title>amerex</title>
    <desc>Created with Sketch.</desc>
    <defs></defs>
    <g id="Page-1" stroke="none" stroke-width="1" fill="none" fill-rule="evenodd">
        <g id="Landing/Splash-Page-Copy-2" transform="translate(-559.000000, -92.000000)">
            <g id="amerex" transform="translate(560.000000, 93.000000)">
                <polygon id="Stroke-1" stroke="#221F20" stroke-width="1.188" fill="#FFFFFF" points="0.879 85.8182 257.546 171.3742 514.212 85.8182 257.546 0.2622"></polygon>
                <path d="M257.5455,156.9705 L470.9975,85.8185 L257.5455,14.6665 L44.0915,85.8185 L257.5455,156.9705 Z M23.4245,85.8185 L257.5455,7.7775 L491.6655,85.8185 L257.5455,163.8595 L23.4245,85.8185 Z" id="Fill-3" fill="#221F20"></path>
                <path d="M220.4122,36.9998 C224.0762,37.2968 227.1452,38.9798 227.7402,42.2488 C228.3332,45.5158 229.4232,50.5658 230.6112,52.0518 C225.9572,51.4578 223.2842,47.6948 222.8882,43.8328 C222.6892,40.7628 222.1942,38.6838 220.4122,36.9998" id="Fill-4" fill="#ED202D"></path>
                <path d="M220.4122,50.1702 C221.7982,61.5572 226.8492,67.2022 250.3172,68.5882 C245.1672,61.6562 240.0182,58.4882 234.7702,56.9032 C229.5222,55.3192 227.0462,55.1212 220.4122,50.1702" id="Fill-6" fill="#ED202D"></path>
                <path d="M233.879,33.7322 L233.879,47.5952 C233.879,49.2782 234.869,51.9522 238.335,54.2302 C241.801,56.5072 251.307,62.2512 254.377,67.5982 C253.981,58.2902 250.416,51.9522 246.455,47.9912 C242.395,44.7242 238.434,42.7432 233.879,33.7322" id="Fill-8" fill="#ED202D"></path>
                <path d="M247.544,27.3948 C244.871,32.7418 245.267,38.6838 249.426,44.5258 C253.585,50.3678 255.565,54.3288 256.555,57.6958 C257.545,61.0618 257.744,64.9248 257.545,67.1028 C262.893,59.7748 263.982,50.1698 260.418,43.5358 C257.545,39.0798 255.465,38.1568 251.406,35.2178 C248.534,33.1378 247.643,30.7618 247.544,27.3948" id="Fill-10" fill="#ED202D"></path>
                <path d="M256.1593,22.8397 C255.5653,26.5037 254.3763,31.3557 258.1393,33.3367 C261.1103,34.5247 262.4963,34.9207 263.3883,35.1187 C262.8933,29.5737 260.4173,26.1077 256.1593,22.8397" id="Fill-12" fill="#ED202D"></path>
                <path d="M269.6266,26.1077 C273.9826,27.8897 275.9636,31.2567 276.2606,33.7327 C276.5586,36.2077 276.1616,41.5547 274.8746,45.3177 C272.1026,41.2577 269.2306,34.1287 268.8346,31.7517 C268.5366,30.0687 268.9336,27.5927 269.6266,26.1077" id="Fill-14" fill="#ED202D"></path>
                <path d="M283.4898,31.6526 C286.0638,34.8216 288.2428,40.4656 286.4608,45.7146 C284.6768,50.9626 280.4198,55.3186 273.6858,59.3796 C275.7648,53.0416 276.6568,50.0706 277.9438,46.8026 C279.5288,42.9416 281.9048,41.1586 282.6968,38.5846 C283.1578,36.6996 284.0838,35.2176 283.4898,31.6526" id="Fill-16" fill="#ED202D"></path>
                <path d="M295.0748,35.7127 C291.9068,38.1887 289.4308,41.8527 289.2328,47.2487 C289.1338,49.1797 288.7378,53.0417 285.8658,54.9227 C281.4598,58.2897 274.3658,63.1427 269.8238,66.6077 C277.3498,65.8157 281.2618,65.4197 286.0638,64.5277 C290.4708,63.8357 296.4618,59.3787 295.4708,52.0517 C294.5798,46.3077 292.9958,41.8527 295.0748,35.7127" id="Fill-18" fill="#ED202D"></path>
                <path d="M256.1817,144.9383 L256.6947,144.9383 C257.2927,144.9383 257.7787,144.7383 257.7787,144.2543 C257.7787,143.8273 257.4637,143.5413 256.7807,143.5413 C256.4947,143.5413 256.2957,143.5703 256.1817,143.5993 L256.1817,144.9383 Z M256.1537,147.5883 L255.0697,147.5883 L255.0697,142.9153 C255.4977,142.8293 256.0957,142.7713 256.8667,142.7713 C257.7487,142.7713 258.1487,142.9153 258.4907,143.1143 C258.7477,143.3133 258.9467,143.6833 258.9467,144.1393 C258.9467,144.6533 258.5477,145.0513 257.9777,145.2233 L257.9777,145.2803 C258.4327,145.4513 258.6897,145.7933 258.8317,146.4193 C258.9747,147.1323 259.0597,147.4173 259.1747,147.5883 L258.0057,147.5883 C257.8627,147.4173 257.7787,146.9913 257.6357,146.4493 C257.5497,145.9363 257.2647,145.7083 256.6667,145.7083 L256.1537,145.7083 L256.1537,147.5883 Z M253.2747,145.1373 C253.2747,147.2183 254.8137,148.8723 256.9227,148.8723 C258.9747,148.8723 260.4857,147.2183 260.4857,145.1673 C260.4857,143.0843 258.9747,141.4033 256.8937,141.4033 C254.8137,141.4033 253.2747,143.0843 253.2747,145.1373 L253.2747,145.1373 Z M261.6827,145.1373 C261.6827,147.7883 259.6017,149.8693 256.8937,149.8693 C254.2147,149.8693 252.0767,147.7883 252.0767,145.1373 C252.0767,142.5433 254.2147,140.4633 256.8937,140.4633 C259.6017,140.4633 261.6827,142.5433 261.6827,145.1373 L261.6827,145.1373 Z" id="Fill-20" fill="#221F20"></path>
                <polygon id="Fill-22" fill="#221F20" points="405.3922 78.2923 412.7142 78.2923 412.7142 74.0343 393.7952 74.0343 393.7952 78.2923 396.0892 78.2923 391.4112 81.9093 385.2852 78.2923 388.6802 78.2923 388.6802 74.0343 358.3592 74.0343 358.3592 78.2923 363.8962 78.2923 373.5022 83.9643 364.9542 90.5713 358.3592 90.5713 358.3592 94.8293 377.2782 94.8293 377.2782 90.5713 374.2562 90.5713 378.7772 87.0783 384.6942 90.5713 381.7522 90.5713 381.7522 94.8293 412.0742 94.8293 412.0742 90.5713 406.0822 90.5713 396.6842 85.0223"></polygon>
                <polygon id="Fill-24" fill="#221F20" points="218.9595 74.0345 218.9595 78.2925 225.5115 78.2925 225.5115 90.5715 218.9595 90.5715 218.9595 94.8285 256.4425 94.8285 256.4425 87.0065 248.7815 87.0065 248.7815 90.5715 238.7555 90.5715 238.7555 87.1555 245.8515 87.1555 245.8515 82.6995 238.7555 82.6995 238.7555 78.2925 248.7815 78.2925 248.7815 82.2535 256.4425 82.2535 256.4425 74.0345"></polygon>
                <polygon id="Fill-26" fill="#221F20" points="313.7984 74.0345 313.7984 78.2925 320.3504 78.2925 320.3504 90.5715 313.7984 90.5715 313.7984 94.8285 351.2814 94.8285 351.2814 87.0065 343.6204 87.0065 343.6204 90.5715 333.5954 90.5715 333.5954 87.1555 340.6904 87.1555 340.6904 82.6995 333.5954 82.6995 333.5954 78.2925 343.6204 78.2925 343.6204 82.2535 351.2814 82.2535 351.2814 74.0345"></polygon>
                <polygon id="Fill-28" fill="#221F20" points="214.1475 78.2923 214.1475 74.0343 192.2235 74.0343 187.5855 79.8023 182.9555 74.0343 161.0315 74.0343 161.0315 78.2923 166.4945 78.2923 166.4945 90.5713 161.0315 90.5713 161.0315 94.8293 176.5445 94.8293 176.5445 90.5713 171.9935 90.5713 171.9935 81.3903 181.9415 94.8293 185.0615 94.8293 194.7155 81.1393 194.7155 90.5713 190.2155 90.5713 190.2155 94.8293 214.1475 94.8293 214.1475 90.5713 207.5365 90.5713 207.5365 78.2923"></polygon>
                <path d="M123.2867,83.5901 L126.1617,79.5081 L129.0367,83.5901 L123.2867,83.5901 Z M148.6697,90.5711 L137.0217,74.0341 L124.1507,74.0341 L112.5017,90.5711 L104.8527,90.5711 L104.8527,94.8291 L124.1617,94.8291 L124.1617,90.5711 L118.3697,90.5711 L120.1477,88.0461 L132.1757,88.0461 L133.9537,90.5711 L127.7267,90.5711 L127.7267,94.8291 L154.4767,94.8291 L154.4767,90.5711 L148.6697,90.5711 Z" id="Fill-30" fill="#221F20"></path>
                <path d="M281.5338,78.2923 L287.8458,78.2923 C291.2248,78.2923 291.8568,79.1703 291.8568,80.5813 C291.8568,81.9923 291.0768,82.8723 287.8458,82.8723 L281.5338,82.8723 L281.5338,78.2923 Z M310.2008,87.6743 C306.9328,90.7933 304.1848,90.7193 303.0708,89.6803 C301.9578,88.6403 300.3228,86.9323 297.8728,86.4863 C300.7598,85.7093 305.0768,84.7783 305.0768,80.5453 C305.0768,76.3123 301.1028,74.2323 296.6098,74.0343 L262.0348,74.0343 L262.0348,78.2923 L267.7528,78.2923 L267.7528,90.5713 L262.0348,90.5713 L262.0348,94.8293 L287.7798,94.8293 L287.7798,90.5713 L281.5338,90.5713 L281.5338,87.1293 L287.0378,87.1293 C290.0698,90.3813 294.9088,95.3243 300.6208,95.3243 C306.7108,95.3243 309.9778,90.3483 311.3148,88.7143 L310.2008,87.6743 Z" id="Fill-32" fill="#221F20"></path>
                <path d="M264.6754,39.3768 C265.1704,48.4868 265.7644,56.2098 262.8934,66.6078 C270.8144,61.2608 277.0534,48.8828 264.6754,39.3768" id="Fill-34" fill="#ED202D"></path>
            </g>
        </g>
    </g>
</svg>